<svg width="1076" height="956" viewBox="0 0 1076 956" fill="none" xmlns="http://www.w3.org/2000/svg">
<path d="M99.6573 189.477H987.885L920.352 353.117H160.353L99.6573 189.477Z" fill="#33DFC0" fill-opacity="0.84"/>
<path d="M9.00228 116.035C-17.8018 61.8265 24.7406 0 88.8503 0H992.141C1057.86 0 1100.33 64.6764 1070.37 119.122C1055.33 146.45 1025.13 163.64 992.141 163.64H88.8503C54.5333 163.64 23.3527 145.05 9.00228 116.035Z" fill="#26A28B" fill-opacity="0.84"/>
<path d="M182.929 378.955H904.614L849.738 559.82H232.244L182.929 378.955Z" fill="#26A28B" fill-opacity="0.84"/>
<path d="M423.49 783.748H664.052L576.649 956H507.948L423.49 783.748Z" fill="#26A28B" fill-opacity="0.84"/>
<path d="M275.453 585.658H821.343L779.837 757.91H312.758L275.453 585.658Z" fill="#3CCFB5"/>
</svg>
